<svg width="25" height="9" viewBox="0 0 25 9" fill="none" xmlns="http://www.w3.org/2000/svg">
<g clip-path="url(#clip0_1_80)">
<path d="M6.25413 0.251678C6.87322 0.251678 7.37517 0.786123 7.37517 1.4456C7.37517 2.10517 6.87322 2.63961 6.25413 2.63961H1.12742C0.508244 2.63961 0.00634003 2.10517 0.00634003 1.4456C0.00634003 0.786123 0.508245 0.251678 1.12738 0.251678H6.25413Z" fill="#1D1E20"/>
<path d="M5.73881 3.38036C6.35803 3.38036 6.85993 3.91489 6.85993 4.57437C6.85993 5.23385 6.35803 5.76838 5.73881 5.76838H2.82087C2.572 5.76932 2.36829 5.97902 2.35877 6.24142V7.79763C2.35877 8.45703 1.85686 8.99156 1.23785 8.99156C0.61867 8.99156 0.116764 8.45703 0.116764 7.79763V5.14923C0.116764 4.17235 0.860277 3.38032 1.7775 3.38032H5.73881V3.38036ZM7.88425 1.19399C7.88425 0.534602 8.38616 -1.52588e-05 9.00529 -1.52588e-05C9.62451 -1.52588e-05 10.1263 0.534602 10.1263 1.19399V7.80597C10.1263 8.46545 9.62455 8.99998 9.00529 8.99998C8.3862 8.99998 7.88425 8.46541 7.88425 7.80597V1.19399ZM21.6818 6.63174L22.1323 6.63054C22.1765 6.6305 22.2189 6.61177 22.2502 6.57846C22.2814 6.54516 22.299 6.50001 22.299 6.45292C22.2997 6.4296 22.2957 6.40639 22.2872 6.38486L20.6121 3.38672L17.9951 8.21302C17.793 8.58623 17.43 8.79906 17.0533 8.80977C17.042 8.81145 17.0307 8.8123 17.0194 8.81231H12.7604C11.8432 8.81231 11.0996 8.02031 11.0996 7.04344V1.19408C11.0996 0.534645 11.6016 2.7714e-05 12.2207 2.7714e-05C12.8397 2.7714e-05 13.3417 0.534645 13.3417 1.19404V5.93198C13.3425 6.19718 13.5394 6.41427 13.7859 6.42416H16.1683C16.2296 6.40408 16.417 6.33623 16.4741 6.24177L19.4665 0.724473C19.6935 0.309215 20.1159 0.0296522 20.5994 0.0296522C21.0831 0.0296522 21.5055 0.309645 21.7316 0.725763L24.6475 5.94002C24.8725 6.25152 24.9942 6.63363 24.9937 7.02662C24.9937 8.01283 24.243 8.81222 23.3173 8.81222H19.9183C19.3528 8.81222 18.8947 8.32404 18.8947 7.72183C18.8947 7.11984 19.3528 6.63174 19.9183 6.63174H21.6818Z" fill="#1D1E20"/>
</g>
<defs>
<clipPath id="clip0_1_80">
<rect width="25" height="9" fill="white"/>
</clipPath>
</defs>
</svg>
